<?xml version="1.0" encoding="UTF-8"?>
<svg width="32px" height="32px" viewBox="0 0 32 32" version="1.1" xmlns="http://www.w3.org/2000/svg" xmlns:xlink="http://www.w3.org/1999/xlink">
    <!-- Generator: Sketch 41.2 (35397) - http://www.bohemiancoding.com/sketch -->
    <title>baffled</title>
    <desc>Created with Sketch.</desc>
    <defs></defs>
    <g id="Page-1" stroke="none" stroke-width="1" fill="none" fill-rule="evenodd">
        <g id="baffled" fill="#FFFFFF">
            <path d="M16,32 C24.837,32 32,24.837 32,16 C32,7.163 24.837,0 16,0 C7.163,0 0,7.163 0,16 C0,24.837 7.163,32 16,32 Z M16,3 C23.18,3 29,8.82 29,16 C29,23.18 23.18,29 16,29 C8.82,29 3,23.18 3,16 C3,8.82 8.82,3 16,3 Z" id="Shape"></path>
            <path d="M12,13 C12,13.552 11.552,14 11,14 C10.448,14 10,13.552 10,13 C10,12.448 10.448,12 11,12 C11.552,12 12,12.448 12,13 Z" id="Shape"></path>
            <path d="M11,10 C12.657,10 14,11.343 14,13 C14,14.657 12.657,16 11,16 C9.343,16 8,14.657 8,13 C8,11.343 9.343,10 11,10 Z M11,8 C8.243,8 6,10.243 6,13 C6,15.757 8.243,18 11,18 C13.757,18 16,15.757 16,13 C16,10.243 13.757,8 11,8 L11,8 Z" id="Shape"></path>
            <path d="M22,13 C22,13.552 21.552,14 21,14 C20.448,14 20,13.552 20,13 C20,12.448 20.448,12 21,12 C21.552,12 22,12.448 22,13 Z" id="Shape"></path>
            <path d="M21,10 C22.657,10 24,11.343 24,13 C24,14.657 22.657,16 21,16 C19.343,16 18,14.657 18,13 C18,11.343 19.343,10 21,10 Z M21,8 C18.243,8 16,10.243 16,13 C16,15.757 18.243,18 21,18 C23.757,18 26,15.757 26,13 C26,10.243 23.757,8 21,8 L21,8 Z" id="Shape"></path>
            <polygon id="Shape" points="12 22 20 22 20 24 12 24"></polygon>
        </g>
    </g>
</svg>